# xmcd
#
# Track frame offsets:
#	150
#	19551
#	34580
#	49481
#	66013
#	77167
#	92072
#	109247
#	123162
#	140570
#	158568
#	173066
#	187892
#	202354
#	216342
#	232429
#	247641
#	261529
#	274927
#	290157
#
# Disc length: 4173 seconds
#
# Revision: 0
# Processed by: cddbd v1.5.2PL0 Copyright (c) Steve Scherf et al.
# Submitted via: EasyCDDAExtractor 16.0.9.1
#
DISCID=30104b14
DTITLE=Nu Country Traxx Volume 202 US
DYEAR=2016
DGENRE=country
TTITLE0=Tim McGraw - Humble And Kind
TTITLE1=LoCash - I Know Somebody
TTITLE2=Dierks Bentley - Somewhere On A Beach
TTITLE3=Chris Young Duet With Cassadee Pope - Think Of You
TTITLE4=A Thousand Horses - Southernality
TTITLE5=Maren Morris - My Church
TTITLE6=Thomas Rhett - T-Shirt
TTITLE7=Steven Tyler - Red White And You
TTITLE8=Brandy Clark - Girl Next Door
TTITLE9=Vince Gill - Take Me Down
TTITLE10=Matt Gary - It's On You
TTITLE11=Tara Thompson - Someone To Take Your Place
TTITLE12=Jess Moskaluke - Take Me Home
TTITLE13=Billy Currington - It Don't Hurt Like It Use To
TTITLE14=Drew Baldridge - Dance With Ya
TTITLE15=Rachele Lynae - Quicksand
TTITLE16=Allie Louise - Stilettos
TTITLE17=Farewell Angelina - Hillbilly 401K
TTITLE18=Backroad Anthem - Torn
TTITLE19=Elvis Carden - Nothing Like Loving You
EXTD=
EXTT0=
EXTT1=
EXTT2=
EXTT3=
EXTT4=
EXTT5=
EXTT6=
EXTT7=
EXTT8=
EXTT9=
EXTT10=
EXTT11=
EXTT12=
EXTT13=
EXTT14=
EXTT15=
EXTT16=
EXTT17=
EXTT18=
EXTT19=
PLAYORDER=
